# xmcd
#
# Track frame offsets: 
#        150
#        14006
#        27688
#        40603
#        53866
#        67453
#        82436
#        96238
#        110486
#        124028
#        135383
#        148326
#        162378
#        176426
#        190241
#        204141
#        219046
#        233366
#        247330
#        261341
#        274403
#        287426
#        299433
#        312271
#
# Disc length: 4335 seconds
#
# Revision: 0
# Processed by: cddbd v1.5.2PL0 Copyright (c) Steve Scherf et al.
# Submitted via: ExactAudioCopyFreeDBPlugin 1.0
#
DISCID=7910ed18
DTITLE=Charley Patton - Pony Blues
DYEAR=1934
DGENRE=Blues
TTITLE0=Mississippi Boweavil Blues
TTITLE1=Screamin' and hollerin' the blues
TTITLE2=Down the dirt road blues
TTITLE3=Pony Blues
TTITLE4=Banty Rooster Blues
TTITLE5=it won't be long
TTITLE6=Tom Rushen blues
TTITLE7=A spoonful blues
TTITLE8=Elder Greene blues
TTITLE9=Circle round the moon
TTITLE10=Mean black cat blues
TTITLE11=Frankie and Albert
TTITLE12=Green river blues
TTITLE13=Magnolia blues
TTITLE14=When your way gets dark
TTITLE15=Dry well blues
TTITLE16=Moon going down
TTITLE17=Jersey Bull blues
TTITLE18=High sherrif blues
TTITLE19=34 Blues
TTITLE20=Love my stuff
TTITLE21=Hang it on the wall
TTITLE22=Yellow bee blues
TTITLE23=Mind reader blues
EXTD=
EXTT0=
EXTT1=
EXTT2=
EXTT3=
EXTT4=
EXTT5=
EXTT6=
EXTT7=
EXTT8=
EXTT9=
EXTT10=
EXTT11=
EXTT12=
EXTT13=
EXTT14=
EXTT15=
EXTT16=
EXTT17=
EXTT18=
EXTT19=
EXTT20=
EXTT21=
EXTT22=
EXTT23=
PLAYORDER=
